<mxfile host="65bd71144e" pages="5">
    <diagram id="wFE0QG_FPsp0jaGvCLVb" name="CUSTOMER DETAILS">
        <mxGraphModel dx="2800" dy="1418" grid="1" gridSize="10" guides="1" tooltips="1" connect="1" arrows="1" fold="1" page="1" pageScale="1" pageWidth="850" pageHeight="1100" math="0" shadow="0">
            <root>
                <mxCell id="0"/>
                <mxCell id="1" parent="0"/>
                <mxCell id="75" value="" style="rounded=0;whiteSpace=wrap;html=1;" parent="1" vertex="1">
                    <mxGeometry x="90" width="660" height="840" as="geometry"/>
                </mxCell>
                <mxCell id="54" value="" style="rounded=0;whiteSpace=wrap;html=1;labelBackgroundColor=#66B2FF;fontFamily=Helvetica;fontSize=15;fontColor=#141414;strokeColor=#141414;fillColor=#FFFFFF;" parent="1" vertex="1">
                    <mxGeometry x="1250" y="517.5" width="440" height="667.5" as="geometry"/>
                </mxCell>
                <mxCell id="72" value="" style="rounded=0;whiteSpace=wrap;html=1;fontSize=16;strokeColor=#141414;align=left;" parent="1" vertex="1">
                    <mxGeometry x="1280" y="875" width="380" height="170" as="geometry"/>
                </mxCell>
                <mxCell id="IC2AhyjfLtijDKhZPdGc-1" value="" style="rounded=0;whiteSpace=wrap;html=1;" parent="1" vertex="1">
                    <mxGeometry x="90" width="910" height="840" as="geometry"/>
                </mxCell>
                <mxCell id="6" value="&lt;font style=&quot;font-size: 19px&quot;&gt;&lt;b&gt;Regular $8.50&lt;/b&gt;&lt;/font&gt;&lt;br&gt;&lt;ul&gt;&lt;div class=&quot;ListContainerWrapper SCXW170753221 BCX0&quot; style=&quot;margin: 0px ; padding: 0px ; position: relative ; font-size: 14.6667px ; text-align: left ; background-color: rgb(255 , 255 , 255)&quot;&gt;&lt;li&gt;&lt;span lang=&quot;EN-US&quot; class=&quot;TextRun SCXW170753221 BCX0&quot; style=&quot;background-color: transparent ; font-size: 11pt ; margin: 0px ; padding: 0px ; font-style: italic ; line-height: 18px ; font-weight: bold&quot;&gt;Cheese Pizza&lt;/span&gt;&lt;span class=&quot;EOP SCXW170753221 BCX0&quot; style=&quot;background-color: transparent ; font-size: 11pt ; margin: 0px ; padding: 0px ; line-height: 18px&quot;&gt;&amp;nbsp;&lt;/span&gt;&lt;br&gt;&lt;/li&gt;&lt;/div&gt;&lt;div class=&quot;ListContainerWrapper SCXW170753221 BCX0&quot; style=&quot;margin: 0px ; padding: 0px ; position: relative ; font-size: 14.6667px ; text-align: left ; background-color: rgb(255 , 255 , 255)&quot;&gt;&lt;li&gt;&lt;span lang=&quot;EN-US&quot; class=&quot;TextRun SCXW170753221 BCX0&quot; style=&quot;background-color: transparent ; font-size: 11pt ; margin: 0px ; padding: 0px ; font-style: italic ; line-height: 18px ; font-weight: bold&quot;&gt;BBQ Beef and Onion Pizza&lt;/span&gt;&lt;span class=&quot;EOP SCXW170753221 BCX0&quot; style=&quot;background-color: transparent ; font-size: 11pt ; margin: 0px ; padding: 0px ; line-height: 18px&quot;&gt;&amp;nbsp;&lt;/span&gt;&lt;br&gt;&lt;/li&gt;&lt;/div&gt;&lt;div class=&quot;ListContainerWrapper SCXW170753221 BCX0&quot; style=&quot;margin: 0px ; padding: 0px ; position: relative ; font-size: 14.6667px ; text-align: left ; background-color: rgb(255 , 255 , 255)&quot;&gt;&lt;li&gt;&lt;span lang=&quot;EN-US&quot; class=&quot;TextRun SCXW170753221 BCX0&quot; style=&quot;background-color: transparent ; font-size: 11pt ; margin: 0px ; padding: 0px ; font-style: italic ; line-height: 18px ; font-weight: bold&quot;&gt;Pepperoni Pizza&lt;/span&gt;&lt;span class=&quot;EOP SCXW170753221 BCX0&quot; style=&quot;background-color: transparent ; font-size: 11pt ; margin: 0px ; padding: 0px ; line-height: 18px&quot;&gt;&amp;nbsp;&lt;/span&gt;&lt;br&gt;&lt;/li&gt;&lt;/div&gt;&lt;div class=&quot;ListContainerWrapper SCXW170753221 BCX0&quot; style=&quot;margin: 0px ; padding: 0px ; position: relative ; font-size: 14.6667px ; text-align: left ; background-color: rgb(255 , 255 , 255)&quot;&gt;&lt;li&gt;&lt;span lang=&quot;EN-US&quot; class=&quot;TextRun SCXW170753221 BCX0&quot; style=&quot;background-color: transparent ; font-size: 11pt ; margin: 0px ; padding: 0px ; font-style: italic ; line-height: 18px ; font-weight: bold&quot;&gt;Cheezy Garlic Pizza&lt;/span&gt;&lt;span class=&quot;EOP SCXW170753221 BCX0&quot; style=&quot;background-color: transparent ; font-size: 11pt ; margin: 0px ; padding: 0px ; line-height: 18px&quot;&gt;&amp;nbsp;&lt;/span&gt;&lt;br&gt;&lt;/li&gt;&lt;/div&gt;&lt;div class=&quot;ListContainerWrapper SCXW170753221 BCX0&quot; style=&quot;margin: 0px ; padding: 0px ; position: relative ; font-size: 14.6667px ; text-align: left ; background-color: rgb(255 , 255 , 255)&quot;&gt;&lt;li&gt;&lt;span lang=&quot;EN-US&quot; class=&quot;TextRun SCXW170753221 BCX0&quot; style=&quot;background-color: transparent ; font-size: 11pt ; margin: 0px ; padding: 0px ; font-style: italic ; line-height: 18px ; font-weight: bold&quot;&gt;Veggie lover Pizza&lt;/span&gt;&lt;span class=&quot;EOP SCXW170753221 BCX0&quot; style=&quot;background-color: transparent ; font-size: 11pt ; margin: 0px ; padding: 0px ; line-height: 18px&quot;&gt;&amp;nbsp;&lt;/span&gt;&lt;br&gt;&lt;/li&gt;&lt;/div&gt;&lt;div class=&quot;ListContainerWrapper SCXW170753221 BCX0&quot; style=&quot;margin: 0px ; padding: 0px ; position: relative ; font-size: 14.6667px ; text-align: left ; background-color: rgb(255 , 255 , 255)&quot;&gt;&lt;li&gt;&lt;span lang=&quot;EN-US&quot; class=&quot;TextRun SCXW170753221 BCX0&quot; style=&quot;background-color: transparent ; font-size: 11pt ; margin: 0px ; padding: 0px ; font-style: italic ; line-height: 18px ; font-weight: bold&quot;&gt;Hot and Spicy Veggie Pizza&lt;/span&gt;&lt;/li&gt;&lt;li&gt;&lt;span lang=&quot;EN-US&quot; class=&quot;TextRun SCXW170753221 BCX0&quot; style=&quot;background-color: transparent ; font-size: 11pt ; margin: 0px ; padding: 0px ; font-style: italic ; line-height: 18px ; font-weight: bold&quot;&gt;Hawaiian Pizza&lt;/span&gt;&lt;/li&gt;&lt;/div&gt;&lt;/ul&gt;" style="rounded=0;whiteSpace=wrap;html=1;" parent="1" vertex="1">
                    <mxGeometry x="140" y="110" width="260" height="250" as="geometry"/>
                </mxCell>
                <mxCell id="7" value="&lt;font style=&quot;font-size: 19px&quot;&gt;&lt;b&gt;Gourmet $13.50&lt;/b&gt;&lt;/font&gt;&lt;span lang=&quot;EN-US&quot; class=&quot;TextRun SCXW220701128 BCX0&quot; style=&quot;background-color: transparent ; font-size: 11pt ; text-align: left ; margin: 0px ; padding: 0px ; font-style: italic ; line-height: 18px ; font-family: &amp;#34;calibri&amp;#34; , &amp;#34;calibri_embeddedfont&amp;#34; , &amp;#34;calibri_msfontservice&amp;#34; , sans-serif ; font-weight: bold&quot;&gt;&lt;br&gt;&lt;/span&gt;&lt;ul style=&quot;font-size: 17px&quot;&gt;&lt;li style=&quot;text-align: left&quot;&gt;&lt;b&gt;&lt;i&gt;&lt;span lang=&quot;EN-US&quot; class=&quot;TextRun SCXW220701128 BCX0&quot; style=&quot;background-color: transparent ; margin: 0px ; padding: 0px ; line-height: 18px ; font-family: &amp;#34;calibri&amp;#34; , &amp;#34;calibri_embeddedfont&amp;#34; , &amp;#34;calibri_msfontservice&amp;#34; , sans-serif&quot;&gt;Garlic Shrimp Pizza&lt;/span&gt;&lt;span class=&quot;EOP SCXW220701128 BCX0&quot; style=&quot;background-color: transparent ; text-align: left ; margin: 0px ; padding: 0px ; line-height: 18px ; font-family: &amp;#34;calibri&amp;#34; , &amp;#34;calibri_embeddedfont&amp;#34; , &amp;#34;calibri_msfontservice&amp;#34; , sans-serif&quot;&gt;&amp;nbsp;&lt;/span&gt;&lt;/i&gt;&lt;/b&gt;&lt;/li&gt;&lt;li style=&quot;text-align: left&quot;&gt;&lt;span class=&quot;EOP SCXW220701128 BCX0&quot; style=&quot;background-color: transparent ; text-align: left ; margin: 0px ; padding: 0px ; line-height: 18px ; font-family: &amp;#34;calibri&amp;#34; , &amp;#34;calibri_embeddedfont&amp;#34; , &amp;#34;calibri_msfontservice&amp;#34; , sans-serif&quot;&gt;&lt;b&gt;&lt;i&gt;Chicken Cranberry&lt;/i&gt;&lt;/b&gt;&lt;/span&gt;&lt;/li&gt;&lt;li style=&quot;text-align: left&quot;&gt;&lt;span class=&quot;EOP SCXW220701128 BCX0&quot; style=&quot;background-color: transparent ; text-align: left ; margin: 0px ; padding: 0px ; line-height: 18px ; font-family: &amp;#34;calibri&amp;#34; , &amp;#34;calibri_embeddedfont&amp;#34; , &amp;#34;calibri_msfontservice&amp;#34; , sans-serif&quot;&gt;&lt;b&gt;&lt;i&gt;Buffalo Chicken Pizza&lt;/i&gt;&lt;/b&gt;&lt;/span&gt;&lt;/li&gt;&lt;li style=&quot;text-align: left&quot;&gt;&lt;span class=&quot;EOP SCXW220701128 BCX0&quot; style=&quot;background-color: transparent ; text-align: left ; margin: 0px ; padding: 0px ; line-height: 18px ; font-family: &amp;#34;calibri&amp;#34; , &amp;#34;calibri_embeddedfont&amp;#34; , &amp;#34;calibri_msfontservice&amp;#34; , sans-serif&quot;&gt;&lt;b&gt;&lt;i&gt;Mega Meat lovers Pizza&lt;/i&gt;&lt;/b&gt;&lt;/span&gt;&lt;/li&gt;&lt;li style=&quot;text-align: left&quot;&gt;&lt;span class=&quot;EOP SCXW220701128 BCX0&quot; style=&quot;background-color: transparent ; text-align: left ; margin: 0px ; padding: 0px ; line-height: 18px ; font-family: &amp;#34;calibri&amp;#34; , &amp;#34;calibri_embeddedfont&amp;#34; , &amp;#34;calibri_msfontservice&amp;#34; , sans-serif&quot;&gt;&lt;b&gt;&lt;i&gt;Meat lovers Hot-dog stuffed Pizza&lt;/i&gt;&lt;/b&gt;&lt;/span&gt;&lt;/li&gt;&lt;/ul&gt;" style="rounded=0;whiteSpace=wrap;html=1;" parent="1" vertex="1">
                    <mxGeometry x="445" y="110" width="260" height="250" as="geometry"/>
                </mxCell>
                <mxCell id="9" value="" style="triangle;whiteSpace=wrap;html=1;fontFamily=Helvetica;fontSize=17;direction=south;" parent="1" vertex="1">
                    <mxGeometry x="310" y="420" width="20" height="20" as="geometry"/>
                </mxCell>
                <mxCell id="19" value="$8.50" style="rounded=0;whiteSpace=wrap;html=1;labelBackgroundColor=#FFFFFF;fontFamily=Helvetica;fontSize=15;fontColor=#141414;fillColor=#FFFFFF;strokeColor=#FFFFFF;" parent="1" vertex="1">
                    <mxGeometry x="510" y="400" width="120" height="60" as="geometry"/>
                </mxCell>
                <mxCell id="20" value="$0.00" style="rounded=0;whiteSpace=wrap;html=1;labelBackgroundColor=#FFFFFF;fontFamily=Helvetica;fontSize=15;fontColor=#141414;fillColor=#FFFFFF;strokeColor=#FFFFFF;" parent="1" vertex="1">
                    <mxGeometry x="510" y="480" width="120" height="60" as="geometry"/>
                </mxCell>
                <mxCell id="21" value="$0.00" style="rounded=0;whiteSpace=wrap;html=1;labelBackgroundColor=#FFFFFF;fontFamily=Helvetica;fontSize=15;fontColor=#141414;fillColor=#FFFFFF;strokeColor=#FFFFFF;" parent="1" vertex="1">
                    <mxGeometry x="510" y="680" width="120" height="60" as="geometry"/>
                </mxCell>
                <mxCell id="22" value="" style="triangle;whiteSpace=wrap;html=1;fontFamily=Helvetica;fontSize=17;direction=south;" parent="1" vertex="1">
                    <mxGeometry x="310" y="495" width="20" height="20" as="geometry"/>
                </mxCell>
                <mxCell id="27" value="" style="rounded=0;whiteSpace=wrap;html=1;labelBackgroundColor=#66B2FF;fontFamily=Helvetica;fontSize=15;fontColor=#141414;strokeColor=#141414;fillColor=#FFFFFF;" parent="1" vertex="1">
                    <mxGeometry x="1250" y="2.5" width="440" height="240" as="geometry"/>
                </mxCell>
                <mxCell id="28" value="Dream Pizza" style="rounded=0;whiteSpace=wrap;html=1;labelBackgroundColor=#FFFFFF;fontFamily=Helvetica;fontSize=15;fontColor=#141414;strokeColor=#141414;fillColor=#FFFFFF;align=left;" parent="1" vertex="1">
                    <mxGeometry x="1250" width="440" height="30" as="geometry"/>
                </mxCell>
                <mxCell id="29" value="" style="ellipse;whiteSpace=wrap;html=1;aspect=fixed;strokeColor=#66B2FF;" parent="1" vertex="1">
                    <mxGeometry x="1660" y="2.5" width="25" height="25" as="geometry"/>
                </mxCell>
                <mxCell id="30" value="" style="ellipse;whiteSpace=wrap;html=1;aspect=fixed;" parent="1" vertex="1">
                    <mxGeometry x="1620" y="2.5" width="25" height="25" as="geometry"/>
                </mxCell>
                <mxCell id="31" value="" style="ellipse;whiteSpace=wrap;html=1;aspect=fixed;" parent="1" vertex="1">
                    <mxGeometry x="1580" y="2.5" width="25" height="25" as="geometry"/>
                </mxCell>
                <mxCell id="33" value="" style="ellipse;whiteSpace=wrap;html=1;aspect=fixed;fillColor=#bac8d3;strokeColor=#23445d;" parent="1" vertex="1">
                    <mxGeometry x="1392.5" y="150" width="15" height="15" as="geometry"/>
                </mxCell>
                <mxCell id="34" value="&lt;font size=&quot;1&quot;&gt;&lt;b style=&quot;font-size: 17px&quot;&gt;&lt;i&gt;Delivery&lt;/i&gt;&lt;/b&gt;&lt;/font&gt;" style="rounded=1;whiteSpace=wrap;html=1;" parent="1" vertex="1">
                    <mxGeometry x="1427.5" y="102.5" width="120" height="20" as="geometry"/>
                </mxCell>
                <mxCell id="35" value="&lt;b&gt;&lt;font style=&quot;font-size: 17px&quot;&gt;&lt;i&gt;Pick-Up&lt;/i&gt;&lt;/font&gt;&lt;/b&gt;" style="rounded=1;whiteSpace=wrap;html=1;" parent="1" vertex="1">
                    <mxGeometry x="1427.5" y="147.5" width="120" height="20" as="geometry"/>
                </mxCell>
                <mxCell id="36" value="" style="ellipse;whiteSpace=wrap;html=1;aspect=fixed;fillColor=#bac8d3;strokeColor=#23445d;" parent="1" vertex="1">
                    <mxGeometry x="1392.5" y="105" width="15" height="15" as="geometry"/>
                </mxCell>
                <mxCell id="38" value="" style="rounded=0;whiteSpace=wrap;html=1;labelBackgroundColor=#66B2FF;fontFamily=Helvetica;fontSize=15;fontColor=#141414;strokeColor=#141414;fillColor=#FFFFFF;" parent="1" vertex="1">
                    <mxGeometry x="1250" y="255" width="440" height="240" as="geometry"/>
                </mxCell>
                <mxCell id="39" value="Dream Pizza" style="rounded=0;whiteSpace=wrap;html=1;labelBackgroundColor=#FFFFFF;fontFamily=Helvetica;fontSize=15;fontColor=#141414;strokeColor=#141414;fillColor=#FFFFFF;align=left;" parent="1" vertex="1">
                    <mxGeometry x="1250" y="252.5" width="440" height="30" as="geometry"/>
                </mxCell>
                <mxCell id="40" value="" style="ellipse;whiteSpace=wrap;html=1;aspect=fixed;strokeColor=#66B2FF;" parent="1" vertex="1">
                    <mxGeometry x="1660" y="255" width="25" height="25" as="geometry"/>
                </mxCell>
                <mxCell id="41" value="" style="ellipse;whiteSpace=wrap;html=1;aspect=fixed;" parent="1" vertex="1">
                    <mxGeometry x="1620" y="255" width="25" height="25" as="geometry"/>
                </mxCell>
                <mxCell id="42" value="" style="ellipse;whiteSpace=wrap;html=1;aspect=fixed;" parent="1" vertex="1">
                    <mxGeometry x="1580" y="255" width="25" height="25" as="geometry"/>
                </mxCell>
                <mxCell id="44" value="&lt;font size=&quot;1&quot;&gt;&lt;i style=&quot;font-size: 15px&quot;&gt;Name&lt;/i&gt;&lt;/font&gt;" style="rounded=1;whiteSpace=wrap;html=1;strokeColor=#FFFFFF;align=right;" parent="1" vertex="1">
                    <mxGeometry x="1300" y="355" width="120" height="20" as="geometry"/>
                </mxCell>
                <mxCell id="45" value="&lt;font size=&quot;1&quot;&gt;&lt;i style=&quot;font-size: 15px&quot;&gt;Address&lt;/i&gt;&lt;/font&gt;" style="rounded=1;whiteSpace=wrap;html=1;strokeColor=#FFFFFF;align=right;" parent="1" vertex="1">
                    <mxGeometry x="1300" y="395" width="120" height="20" as="geometry"/>
                </mxCell>
                <mxCell id="48" value="&lt;font size=&quot;1&quot;&gt;&lt;i style=&quot;font-size: 15px&quot;&gt;Phone Number&lt;/i&gt;&lt;/font&gt;" style="rounded=1;whiteSpace=wrap;html=1;strokeColor=#FFFFFF;align=right;" parent="1" vertex="1">
                    <mxGeometry x="1300" y="435" width="120" height="20" as="geometry"/>
                </mxCell>
                <mxCell id="49" value="Mike" style="rounded=0;whiteSpace=wrap;html=1;fontSize=15;strokeColor=#141414;align=left;" parent="1" vertex="1">
                    <mxGeometry x="1440" y="355" width="210" height="20" as="geometry"/>
                </mxCell>
                <mxCell id="50" value="021 345 6789" style="rounded=0;whiteSpace=wrap;html=1;fontSize=15;strokeColor=#141414;align=left;" parent="1" vertex="1">
                    <mxGeometry x="1440" y="435" width="210" height="20" as="geometry"/>
                </mxCell>
                <mxCell id="51" value="45b Candice drive, Auckland" style="rounded=0;whiteSpace=wrap;html=1;fontSize=15;strokeColor=#141414;align=left;" parent="1" vertex="1">
                    <mxGeometry x="1440" y="395" width="210" height="20" as="geometry"/>
                </mxCell>
                <mxCell id="52" value="&lt;font size=&quot;1&quot;&gt;&lt;b style=&quot;font-size: 19px&quot;&gt;Dream Pizza Ordering System&lt;/b&gt;&lt;/font&gt;" style="rounded=0;whiteSpace=wrap;html=1;strokeColor=#FFFFFF;" parent="1" vertex="1">
                    <mxGeometry x="1330" y="32.5" width="280" height="50" as="geometry"/>
                </mxCell>
                <mxCell id="53" value="&lt;font size=&quot;1&quot;&gt;&lt;b style=&quot;font-size: 19px&quot;&gt;Dream Pizza Ordering System&lt;/b&gt;&lt;/font&gt;" style="rounded=0;whiteSpace=wrap;html=1;strokeColor=#FFFFFF;" parent="1" vertex="1">
                    <mxGeometry x="1330" y="305" width="280" height="40" as="geometry"/>
                </mxCell>
                <mxCell id="55" value="Dream Pizza" style="rounded=0;whiteSpace=wrap;html=1;labelBackgroundColor=#FFFFFF;fontFamily=Helvetica;fontSize=15;fontColor=#141414;strokeColor=#141414;fillColor=#FFFFFF;align=left;" parent="1" vertex="1">
                    <mxGeometry x="1250" y="515" width="440" height="30" as="geometry"/>
                </mxCell>
                <mxCell id="56" value="" style="ellipse;whiteSpace=wrap;html=1;aspect=fixed;strokeColor=#66B2FF;" parent="1" vertex="1">
                    <mxGeometry x="1660" y="517.5" width="25" height="25" as="geometry"/>
                </mxCell>
                <mxCell id="57" value="" style="ellipse;whiteSpace=wrap;html=1;aspect=fixed;" parent="1" vertex="1">
                    <mxGeometry x="1620" y="517.5" width="25" height="25" as="geometry"/>
                </mxCell>
                <mxCell id="58" value="" style="ellipse;whiteSpace=wrap;html=1;aspect=fixed;" parent="1" vertex="1">
                    <mxGeometry x="1580" y="517.5" width="25" height="25" as="geometry"/>
                </mxCell>
                <mxCell id="59" value="&lt;font size=&quot;1&quot;&gt;&lt;i style=&quot;font-size: 15px&quot;&gt;Name&lt;/i&gt;&lt;/font&gt;" style="rounded=1;whiteSpace=wrap;html=1;strokeColor=#FFFFFF;align=right;" parent="1" vertex="1">
                    <mxGeometry x="1295" y="925" width="120" height="20" as="geometry"/>
                </mxCell>
                <mxCell id="60" value="&lt;font size=&quot;1&quot;&gt;&lt;i style=&quot;font-size: 15px&quot;&gt;Address&lt;/i&gt;&lt;/font&gt;" style="rounded=1;whiteSpace=wrap;html=1;strokeColor=#FFFFFF;align=right;" parent="1" vertex="1">
                    <mxGeometry x="1295" y="965" width="120" height="20" as="geometry"/>
                </mxCell>
                <mxCell id="61" value="&lt;font size=&quot;1&quot;&gt;&lt;i style=&quot;font-size: 15px&quot;&gt;Phone Number&lt;/i&gt;&lt;/font&gt;" style="rounded=1;whiteSpace=wrap;html=1;strokeColor=#FFFFFF;align=right;" parent="1" vertex="1">
                    <mxGeometry x="1295" y="1005" width="120" height="20" as="geometry"/>
                </mxCell>
                <mxCell id="62" value="Mike Ox-Long" style="rounded=0;whiteSpace=wrap;html=1;fontSize=15;strokeColor=#141414;align=left;" parent="1" vertex="1">
                    <mxGeometry x="1435" y="925" width="210" height="20" as="geometry"/>
                </mxCell>
                <mxCell id="63" value="021 345 6789" style="rounded=0;whiteSpace=wrap;html=1;fontSize=15;strokeColor=#141414;align=left;" parent="1" vertex="1">
                    <mxGeometry x="1435" y="1005" width="210" height="20" as="geometry"/>
                </mxCell>
                <mxCell id="64" value="45b Candice drive, Auckland" style="rounded=0;whiteSpace=wrap;html=1;fontSize=15;strokeColor=#141414;align=left;" parent="1" vertex="1">
                    <mxGeometry x="1435" y="965" width="210" height="20" as="geometry"/>
                </mxCell>
                <mxCell id="65" value="&lt;font size=&quot;1&quot;&gt;&lt;b style=&quot;font-size: 19px&quot;&gt;Dream Pizza Ordering System&lt;/b&gt;&lt;/font&gt;" style="rounded=0;whiteSpace=wrap;html=1;strokeColor=#FFFFFF;" parent="1" vertex="1">
                    <mxGeometry x="1330" y="567.5" width="280" height="40" as="geometry"/>
                </mxCell>
                <mxCell id="66" value="&lt;b&gt;Cancel Order&lt;/b&gt;" style="rounded=1;whiteSpace=wrap;html=1;labelBackgroundColor=#66B2FF;fontFamily=Helvetica;fontSize=15;fontColor=#141414;strokeColor=#3399FF;fillColor=#66B2FF;" parent="1" vertex="1">
                    <mxGeometry x="1270" y="1125" width="120" height="40" as="geometry"/>
                </mxCell>
                <mxCell id="67" value="&lt;b&gt;Complete Order&lt;/b&gt;" style="rounded=1;whiteSpace=wrap;html=1;labelBackgroundColor=#66B2FF;fontFamily=Helvetica;fontSize=15;fontColor=#141414;strokeColor=#3399FF;fillColor=#66B2FF;" parent="1" vertex="1">
                    <mxGeometry x="1410" y="1125" width="120" height="40" as="geometry"/>
                </mxCell>
                <mxCell id="68" value="&lt;b&gt;Start Over&lt;/b&gt;" style="rounded=1;whiteSpace=wrap;html=1;labelBackgroundColor=#66B2FF;fontFamily=Helvetica;fontSize=15;fontColor=#141414;strokeColor=#3399FF;fillColor=#66B2FF;" parent="1" vertex="1">
                    <mxGeometry x="1547.5" y="1125" width="120" height="40" as="geometry"/>
                </mxCell>
                <mxCell id="70" value="&lt;span&gt;Order:&lt;/span&gt;&lt;br&gt;&lt;span&gt;Cheese Pizza&amp;nbsp;&lt;/span&gt;&lt;span&gt;&#9;&lt;span style=&quot;white-space: pre&quot;&gt;&#9;&lt;/span&gt;&lt;span style=&quot;white-space: pre&quot;&gt;&#9;&lt;/span&gt;&lt;/span&gt;&lt;span&gt;&#9;&lt;/span&gt;&lt;span&gt;&#9;&lt;/span&gt;&lt;span&gt;$8.50&lt;/span&gt;&lt;br&gt;&lt;span&gt;Hawaiian Pizza&amp;nbsp;&lt;/span&gt;&lt;span&gt;&#9;&lt;span style=&quot;white-space: pre&quot;&gt;&#9;&lt;/span&gt;&lt;span style=&quot;white-space: pre&quot;&gt;&#9;&lt;/span&gt;&lt;/span&gt;&lt;span&gt;&#9;&lt;/span&gt;&lt;span&gt;$8.50&lt;/span&gt;&lt;br&gt;&lt;span&gt;Garlic Shrimp Pizza&amp;nbsp;&lt;span style=&quot;white-space: pre&quot;&gt;&#9;&lt;/span&gt;&lt;/span&gt;&lt;span&gt;&#9;&lt;/span&gt;&lt;span&gt;$13.50&lt;/span&gt;&lt;br&gt;&lt;br&gt;&lt;span&gt;Delivery Fee&amp;nbsp;&lt;/span&gt;&lt;span&gt;&#9;&lt;span style=&quot;white-space: pre&quot;&gt;&#9;&lt;/span&gt;&lt;span style=&quot;white-space: pre&quot;&gt;&#9;&lt;/span&gt;&lt;span style=&quot;white-space: pre&quot;&gt;&#9;&lt;/span&gt;&lt;/span&gt;&lt;span&gt;&#9;&lt;/span&gt;&lt;span&gt;&#9;&lt;/span&gt;&lt;span&gt;$3.00&lt;/span&gt;&lt;br&gt;&lt;span&gt;Delivery Cost:&amp;nbsp;&lt;/span&gt;&lt;span&gt;&#9;&lt;span style=&quot;white-space: pre&quot;&gt;&#9;&lt;/span&gt;&lt;span style=&quot;white-space: pre&quot;&gt;&#9;&lt;/span&gt;&lt;/span&gt;&lt;span&gt;&#9;&lt;/span&gt;&lt;span&gt;&#9;&lt;/span&gt;&lt;span&gt;$33.50&lt;/span&gt;" style="rounded=0;whiteSpace=wrap;html=1;fontSize=16;strokeColor=#141414;align=left;" parent="1" vertex="1">
                    <mxGeometry x="1280" y="630" width="380" height="165" as="geometry"/>
                </mxCell>
                <mxCell id="73" value="&lt;font style=&quot;font-size: 16px&quot;&gt;Customer Details&lt;/font&gt;" style="rounded=0;whiteSpace=wrap;html=1;fontFamily=Helvetica;fontSize=19;fontColor=default;strokeColor=#141414;fillColor=default;" parent="1" vertex="1">
                    <mxGeometry x="1355" y="885" width="230" height="30" as="geometry"/>
                </mxCell>
                <mxCell id="74" value="&lt;b&gt;NEXT&lt;/b&gt;" style="rounded=1;whiteSpace=wrap;html=1;labelBackgroundColor=#66B2FF;fontFamily=Helvetica;fontSize=15;fontColor=#141414;strokeColor=#3399FF;fillColor=#66B2FF;" parent="1" vertex="1">
                    <mxGeometry x="1427.5" y="190" width="120" height="40" as="geometry"/>
                </mxCell>
                <mxCell id="76" value="&lt;font style=&quot;font-size: 15px&quot; color=&quot;#ffffff&quot;&gt;Select a pizza&lt;/font&gt;" style="rounded=1;whiteSpace=wrap;html=1;fontFamily=Helvetica;fontSize=17;align=left;fillColor=#696969;" parent="1" vertex="1">
                    <mxGeometry x="195" y="645" width="170" height="30" as="geometry"/>
                </mxCell>
                <mxCell id="77" value="" style="triangle;whiteSpace=wrap;html=1;fontFamily=Helvetica;fontSize=17;direction=south;" parent="1" vertex="1">
                    <mxGeometry x="335" y="650" width="20" height="20" as="geometry"/>
                </mxCell>
                <mxCell id="78" value="" style="triangle;whiteSpace=wrap;html=1;fontFamily=Helvetica;fontSize=17;direction=south;" parent="1" vertex="1">
                    <mxGeometry x="335" y="594" width="20" height="20" as="geometry"/>
                </mxCell>
                <mxCell id="79" value="&lt;font style=&quot;font-size: 15px&quot; color=&quot;#ffffff&quot;&gt;Select a pizza&lt;/font&gt;" style="rounded=1;whiteSpace=wrap;html=1;fontFamily=Helvetica;fontSize=17;align=left;fillColor=#696969;" parent="1" vertex="1">
                    <mxGeometry x="195" y="589" width="170" height="30" as="geometry"/>
                </mxCell>
                <mxCell id="80" value="" style="rounded=0;whiteSpace=wrap;html=1;labelBackgroundColor=#66B2FF;fontFamily=Helvetica;fontSize=15;fontColor=#141414;strokeColor=#141414;fillColor=#FFFFFF;" parent="1" vertex="1">
                    <mxGeometry x="1250" y="517.5" width="440" height="667.5" as="geometry"/>
                </mxCell>
                <mxCell id="81" value="" style="rounded=0;whiteSpace=wrap;html=1;fontSize=16;strokeColor=#141414;align=left;" parent="1" vertex="1">
                    <mxGeometry x="1280" y="875" width="380" height="170" as="geometry"/>
                </mxCell>
                <mxCell id="82" style="edgeStyle=none;html=1;entryX=0;entryY=0.5;entryDx=0;entryDy=0;" parent="1" target="100" edge="1">
                    <mxGeometry relative="1" as="geometry">
                        <mxPoint x="1150" y="800" as="sourcePoint"/>
                        <Array as="points">
                            <mxPoint x="1200" y="800"/>
                            <mxPoint x="1200" y="123"/>
                        </Array>
                    </mxGeometry>
                </mxCell>
                <mxCell id="83" value="Dream Pizza" style="rounded=0;whiteSpace=wrap;html=1;labelBackgroundColor=#FFFFFF;fontFamily=Helvetica;fontSize=15;fontColor=#141414;strokeColor=#141414;fillColor=#FFFFFF;align=left;" parent="1" vertex="1">
                    <mxGeometry x="90" width="910" height="30" as="geometry"/>
                </mxCell>
                <mxCell id="84" value="" style="ellipse;whiteSpace=wrap;html=1;aspect=fixed;strokeColor=#66B2FF;" parent="1" vertex="1">
                    <mxGeometry x="955" y="2.5" width="25" height="25" as="geometry"/>
                </mxCell>
                <mxCell id="85" value="" style="ellipse;whiteSpace=wrap;html=1;aspect=fixed;" parent="1" vertex="1">
                    <mxGeometry x="915" y="2.5" width="25" height="25" as="geometry"/>
                </mxCell>
                <mxCell id="86" value="" style="ellipse;whiteSpace=wrap;html=1;aspect=fixed;" parent="1" vertex="1">
                    <mxGeometry x="875" y="2.5" width="25" height="25" as="geometry"/>
                </mxCell>
                <mxCell id="87" value="&lt;font size=&quot;1&quot;&gt;&lt;b style=&quot;font-size: 19px&quot;&gt;Dream Pizza Ordering System&lt;/b&gt;&lt;/font&gt;" style="rounded=0;whiteSpace=wrap;html=1;strokeColor=#FFFFFF;" parent="1" vertex="1">
                    <mxGeometry x="385" y="45" width="280" height="60" as="geometry"/>
                </mxCell>
                <mxCell id="90" value="&lt;font style=&quot;font-size: 15px&quot; color=&quot;#ffffff&quot;&gt;Cheese Pizza&lt;/font&gt;" style="rounded=1;whiteSpace=wrap;html=1;fontFamily=Helvetica;fontSize=17;align=left;fillColor=#696969;" parent="1" vertex="1">
                    <mxGeometry x="195" y="410" width="170" height="30" as="geometry"/>
                </mxCell>
                <mxCell id="91" value="" style="triangle;whiteSpace=wrap;html=1;fontFamily=Helvetica;fontSize=17;direction=south;" parent="1" vertex="1">
                    <mxGeometry x="335" y="420" width="20" height="20" as="geometry"/>
                </mxCell>
                <mxCell id="92" value="&lt;font style=&quot;font-size: 15px&quot; color=&quot;#ffffff&quot;&gt;Select a pizza&lt;/font&gt;" style="rounded=1;whiteSpace=wrap;html=1;fontFamily=Helvetica;fontSize=17;align=left;fillColor=#696969;" parent="1" vertex="1">
                    <mxGeometry x="195" y="487.5" width="170" height="30" as="geometry"/>
                </mxCell>
                <mxCell id="93" value="&lt;font style=&quot;font-size: 15px&quot; color=&quot;#ffffff&quot;&gt;Select a pizza&lt;/font&gt;" style="rounded=1;whiteSpace=wrap;html=1;fontFamily=Helvetica;fontSize=17;align=left;fillColor=#696969;" parent="1" vertex="1">
                    <mxGeometry x="195" y="710" width="170" height="30" as="geometry"/>
                </mxCell>
                <mxCell id="94" value="$8.50" style="rounded=0;whiteSpace=wrap;html=1;labelBackgroundColor=#FFFFFF;fontFamily=Helvetica;fontSize=15;fontColor=#141414;fillColor=#FFFFFF;strokeColor=#FFFFFF;" parent="1" vertex="1">
                    <mxGeometry x="510" y="400" width="120" height="60" as="geometry"/>
                </mxCell>
                <mxCell id="95" value="$0.00" style="rounded=0;whiteSpace=wrap;html=1;labelBackgroundColor=#FFFFFF;fontFamily=Helvetica;fontSize=15;fontColor=#141414;fillColor=#FFFFFF;strokeColor=#FFFFFF;" parent="1" vertex="1">
                    <mxGeometry x="510" y="480" width="120" height="60" as="geometry"/>
                </mxCell>
                <mxCell id="96" value="$0.00" style="rounded=0;whiteSpace=wrap;html=1;labelBackgroundColor=#FFFFFF;fontFamily=Helvetica;fontSize=15;fontColor=#141414;fillColor=#FFFFFF;strokeColor=#FFFFFF;" parent="1" vertex="1">
                    <mxGeometry x="510" y="680" width="120" height="60" as="geometry"/>
                </mxCell>
                <mxCell id="97" value="" style="triangle;whiteSpace=wrap;html=1;fontFamily=Helvetica;fontSize=17;direction=south;" parent="1" vertex="1">
                    <mxGeometry x="335" y="492.5" width="20" height="20" as="geometry"/>
                </mxCell>
                <mxCell id="98" value="" style="triangle;whiteSpace=wrap;html=1;fontFamily=Helvetica;fontSize=17;direction=south;" parent="1" vertex="1">
                    <mxGeometry x="335" y="715" width="20" height="20" as="geometry"/>
                </mxCell>
                <mxCell id="99" value="&lt;b&gt;NEXT&lt;/b&gt;" style="rounded=1;whiteSpace=wrap;html=1;labelBackgroundColor=#66B2FF;fontFamily=Helvetica;fontSize=15;fontColor=#141414;strokeColor=#3399FF;fillColor=#66B2FF;" parent="1" vertex="1">
                    <mxGeometry x="515" y="780" width="120" height="40" as="geometry"/>
                </mxCell>
                <mxCell id="100" value="" style="rounded=0;whiteSpace=wrap;html=1;labelBackgroundColor=#66B2FF;fontFamily=Helvetica;fontSize=15;fontColor=#141414;strokeColor=#141414;fillColor=#FFFFFF;" parent="1" vertex="1">
                    <mxGeometry x="1250" y="2.5" width="440" height="240" as="geometry"/>
                </mxCell>
                <mxCell id="101" value="Dream Pizza" style="rounded=0;whiteSpace=wrap;html=1;labelBackgroundColor=#FFFFFF;fontFamily=Helvetica;fontSize=15;fontColor=#141414;strokeColor=#141414;fillColor=#FFFFFF;align=left;" parent="1" vertex="1">
                    <mxGeometry x="1250" width="440" height="30" as="geometry"/>
                </mxCell>
                <mxCell id="102" value="" style="ellipse;whiteSpace=wrap;html=1;aspect=fixed;strokeColor=#66B2FF;" parent="1" vertex="1">
                    <mxGeometry x="1660" y="2.5" width="25" height="25" as="geometry"/>
                </mxCell>
                <mxCell id="103" value="" style="ellipse;whiteSpace=wrap;html=1;aspect=fixed;" parent="1" vertex="1">
                    <mxGeometry x="1620" y="2.5" width="25" height="25" as="geometry"/>
                </mxCell>
                <mxCell id="104" value="" style="ellipse;whiteSpace=wrap;html=1;aspect=fixed;" parent="1" vertex="1">
                    <mxGeometry x="1580" y="2.5" width="25" height="25" as="geometry"/>
                </mxCell>
                <mxCell id="105" value="" style="ellipse;whiteSpace=wrap;html=1;aspect=fixed;fillColor=#bac8d3;strokeColor=#23445d;" parent="1" vertex="1">
                    <mxGeometry x="1392.5" y="150" width="15" height="15" as="geometry"/>
                </mxCell>
                <mxCell id="106" value="&lt;font size=&quot;1&quot;&gt;&lt;b style=&quot;font-size: 17px&quot;&gt;&lt;i&gt;Delivery&lt;/i&gt;&lt;/b&gt;&lt;/font&gt;" style="rounded=1;whiteSpace=wrap;html=1;" parent="1" vertex="1">
                    <mxGeometry x="1427.5" y="102.5" width="120" height="20" as="geometry"/>
                </mxCell>
                <mxCell id="107" value="&lt;b&gt;&lt;font style=&quot;font-size: 17px&quot;&gt;&lt;i&gt;Pick-Up&lt;/i&gt;&lt;/font&gt;&lt;/b&gt;" style="rounded=1;whiteSpace=wrap;html=1;" parent="1" vertex="1">
                    <mxGeometry x="1427.5" y="147.5" width="120" height="20" as="geometry"/>
                </mxCell>
                <mxCell id="108" value="" style="ellipse;whiteSpace=wrap;html=1;aspect=fixed;fillColor=#bac8d3;strokeColor=#23445d;" parent="1" vertex="1">
                    <mxGeometry x="1392.5" y="105" width="15" height="15" as="geometry"/>
                </mxCell>
                <mxCell id="109" value="" style="rounded=0;whiteSpace=wrap;html=1;labelBackgroundColor=#66B2FF;fontFamily=Helvetica;fontSize=15;fontColor=#141414;strokeColor=#141414;fillColor=#FFFFFF;" parent="1" vertex="1">
                    <mxGeometry x="1250" y="255" width="440" height="240" as="geometry"/>
                </mxCell>
                <mxCell id="110" value="Dream Pizza" style="rounded=0;whiteSpace=wrap;html=1;labelBackgroundColor=#FFFFFF;fontFamily=Helvetica;fontSize=15;fontColor=#141414;strokeColor=#141414;fillColor=#FFFFFF;align=left;" parent="1" vertex="1">
                    <mxGeometry x="1250" y="252.5" width="440" height="30" as="geometry"/>
                </mxCell>
                <mxCell id="111" value="" style="ellipse;whiteSpace=wrap;html=1;aspect=fixed;strokeColor=#66B2FF;" parent="1" vertex="1">
                    <mxGeometry x="1660" y="255" width="25" height="25" as="geometry"/>
                </mxCell>
                <mxCell id="112" value="" style="ellipse;whiteSpace=wrap;html=1;aspect=fixed;" parent="1" vertex="1">
                    <mxGeometry x="1620" y="255" width="25" height="25" as="geometry"/>
                </mxCell>
                <mxCell id="113" value="" style="ellipse;whiteSpace=wrap;html=1;aspect=fixed;" parent="1" vertex="1">
                    <mxGeometry x="1580" y="255" width="25" height="25" as="geometry"/>
                </mxCell>
                <mxCell id="114" value="&lt;font size=&quot;1&quot;&gt;&lt;i style=&quot;font-size: 15px&quot;&gt;Name&lt;/i&gt;&lt;/font&gt;" style="rounded=1;whiteSpace=wrap;html=1;strokeColor=#FFFFFF;align=right;" parent="1" vertex="1">
                    <mxGeometry x="1300" y="355" width="120" height="20" as="geometry"/>
                </mxCell>
                <mxCell id="115" value="&lt;font size=&quot;1&quot;&gt;&lt;i style=&quot;font-size: 15px&quot;&gt;Address&lt;/i&gt;&lt;/font&gt;" style="rounded=1;whiteSpace=wrap;html=1;strokeColor=#FFFFFF;align=right;" parent="1" vertex="1">
                    <mxGeometry x="1300" y="395" width="120" height="20" as="geometry"/>
                </mxCell>
                <mxCell id="116" value="&lt;font size=&quot;1&quot;&gt;&lt;i style=&quot;font-size: 15px&quot;&gt;Phone Number&lt;/i&gt;&lt;/font&gt;" style="rounded=1;whiteSpace=wrap;html=1;strokeColor=#FFFFFF;align=right;" parent="1" vertex="1">
                    <mxGeometry x="1300" y="435" width="120" height="20" as="geometry"/>
                </mxCell>
                <mxCell id="117" value="Mike" style="rounded=0;whiteSpace=wrap;html=1;fontSize=15;strokeColor=#141414;align=left;" parent="1" vertex="1">
                    <mxGeometry x="1440" y="355" width="210" height="20" as="geometry"/>
                </mxCell>
                <mxCell id="118" value="021 345 6789" style="rounded=0;whiteSpace=wrap;html=1;fontSize=15;strokeColor=#141414;align=left;" parent="1" vertex="1">
                    <mxGeometry x="1440" y="435" width="210" height="20" as="geometry"/>
                </mxCell>
                <mxCell id="119" value="45b Candice drive, Auckland" style="rounded=0;whiteSpace=wrap;html=1;fontSize=15;strokeColor=#141414;align=left;" parent="1" vertex="1">
                    <mxGeometry x="1440" y="395" width="210" height="20" as="geometry"/>
                </mxCell>
                <mxCell id="120" value="&lt;font size=&quot;1&quot;&gt;&lt;b style=&quot;font-size: 19px&quot;&gt;Dream Pizza Ordering System&lt;/b&gt;&lt;/font&gt;" style="rounded=0;whiteSpace=wrap;html=1;strokeColor=#FFFFFF;" parent="1" vertex="1">
                    <mxGeometry x="1330" y="32.5" width="280" height="50" as="geometry"/>
                </mxCell>
                <mxCell id="121" value="&lt;font size=&quot;1&quot;&gt;&lt;b style=&quot;font-size: 19px&quot;&gt;Dream Pizza Ordering System&lt;/b&gt;&lt;/font&gt;" style="rounded=0;whiteSpace=wrap;html=1;strokeColor=#FFFFFF;" parent="1" vertex="1">
                    <mxGeometry x="1330" y="305" width="280" height="40" as="geometry"/>
                </mxCell>
                <mxCell id="122" value="Dream Pizza" style="rounded=0;whiteSpace=wrap;html=1;labelBackgroundColor=#FFFFFF;fontFamily=Helvetica;fontSize=15;fontColor=#141414;strokeColor=#141414;fillColor=#FFFFFF;align=left;" parent="1" vertex="1">
                    <mxGeometry x="1250" y="515" width="440" height="30" as="geometry"/>
                </mxCell>
                <mxCell id="123" value="" style="ellipse;whiteSpace=wrap;html=1;aspect=fixed;strokeColor=#66B2FF;" parent="1" vertex="1">
                    <mxGeometry x="1660" y="517.5" width="25" height="25" as="geometry"/>
                </mxCell>
                <mxCell id="124" value="" style="ellipse;whiteSpace=wrap;html=1;aspect=fixed;" parent="1" vertex="1">
                    <mxGeometry x="1620" y="517.5" width="25" height="25" as="geometry"/>
                </mxCell>
                <mxCell id="125" value="" style="ellipse;whiteSpace=wrap;html=1;aspect=fixed;" parent="1" vertex="1">
                    <mxGeometry x="1580" y="517.5" width="25" height="25" as="geometry"/>
                </mxCell>
                <mxCell id="126" value="&lt;font size=&quot;1&quot;&gt;&lt;i style=&quot;font-size: 15px&quot;&gt;Name&lt;/i&gt;&lt;/font&gt;" style="rounded=1;whiteSpace=wrap;html=1;strokeColor=#FFFFFF;align=right;" parent="1" vertex="1">
                    <mxGeometry x="1295" y="925" width="120" height="20" as="geometry"/>
                </mxCell>
                <mxCell id="127" value="&lt;font size=&quot;1&quot;&gt;&lt;i style=&quot;font-size: 15px&quot;&gt;Address&lt;/i&gt;&lt;/font&gt;" style="rounded=1;whiteSpace=wrap;html=1;strokeColor=#FFFFFF;align=right;" parent="1" vertex="1">
                    <mxGeometry x="1295" y="965" width="120" height="20" as="geometry"/>
                </mxCell>
                <mxCell id="128" value="&lt;font size=&quot;1&quot;&gt;&lt;i style=&quot;font-size: 15px&quot;&gt;Phone Number&lt;/i&gt;&lt;/font&gt;" style="rounded=1;whiteSpace=wrap;html=1;strokeColor=#FFFFFF;align=right;" parent="1" vertex="1">
                    <mxGeometry x="1295" y="1005" width="120" height="20" as="geometry"/>
                </mxCell>
                <mxCell id="129" value="Mike Ox-Long" style="rounded=0;whiteSpace=wrap;html=1;fontSize=15;strokeColor=#141414;align=left;" parent="1" vertex="1">
                    <mxGeometry x="1435" y="925" width="210" height="20" as="geometry"/>
                </mxCell>
                <mxCell id="130" value="021 345 6789" style="rounded=0;whiteSpace=wrap;html=1;fontSize=15;strokeColor=#141414;align=left;" parent="1" vertex="1">
                    <mxGeometry x="1435" y="1005" width="210" height="20" as="geometry"/>
                </mxCell>
                <mxCell id="131" value="45b Candice drive, Auckland" style="rounded=0;whiteSpace=wrap;html=1;fontSize=15;strokeColor=#141414;align=left;" parent="1" vertex="1">
                    <mxGeometry x="1435" y="965" width="210" height="20" as="geometry"/>
                </mxCell>
                <mxCell id="132" value="&lt;font size=&quot;1&quot;&gt;&lt;b style=&quot;font-size: 19px&quot;&gt;Dream Pizza Ordering System&lt;/b&gt;&lt;/font&gt;" style="rounded=0;whiteSpace=wrap;html=1;strokeColor=#FFFFFF;" parent="1" vertex="1">
                    <mxGeometry x="1330" y="567.5" width="280" height="40" as="geometry"/>
                </mxCell>
                <mxCell id="133" value="&lt;b&gt;Cancel Order&lt;/b&gt;" style="rounded=1;whiteSpace=wrap;html=1;labelBackgroundColor=#66B2FF;fontFamily=Helvetica;fontSize=15;fontColor=#141414;strokeColor=#3399FF;fillColor=#66B2FF;" parent="1" vertex="1">
                    <mxGeometry x="1270" y="1125" width="120" height="40" as="geometry"/>
                </mxCell>
                <mxCell id="134" value="&lt;b&gt;Complete Order&lt;/b&gt;" style="rounded=1;whiteSpace=wrap;html=1;labelBackgroundColor=#66B2FF;fontFamily=Helvetica;fontSize=15;fontColor=#141414;strokeColor=#3399FF;fillColor=#66B2FF;" parent="1" vertex="1">
                    <mxGeometry x="1410" y="1125" width="120" height="40" as="geometry"/>
                </mxCell>
                <mxCell id="135" value="&lt;b&gt;Start Over&lt;/b&gt;" style="rounded=1;whiteSpace=wrap;html=1;labelBackgroundColor=#66B2FF;fontFamily=Helvetica;fontSize=15;fontColor=#141414;strokeColor=#3399FF;fillColor=#66B2FF;" parent="1" vertex="1">
                    <mxGeometry x="1547.5" y="1125" width="120" height="40" as="geometry"/>
                </mxCell>
                <mxCell id="136" value="&lt;span&gt;Order:&lt;/span&gt;&lt;br&gt;&lt;span&gt;Cheese Pizza&amp;nbsp;&lt;/span&gt;&lt;span&gt;&#9;&lt;span style=&quot;white-space: pre&quot;&gt;&#9;&lt;/span&gt;&lt;span style=&quot;white-space: pre&quot;&gt;&#9;&lt;/span&gt;&lt;/span&gt;&lt;span&gt;&#9;&lt;/span&gt;&lt;span&gt;&#9;&lt;/span&gt;&lt;span&gt;$8.50&lt;/span&gt;&lt;br&gt;&lt;span&gt;Hawaiian Pizza&amp;nbsp;&lt;/span&gt;&lt;span&gt;&#9;&lt;span style=&quot;white-space: pre&quot;&gt;&#9;&lt;/span&gt;&lt;span style=&quot;white-space: pre&quot;&gt;&#9;&lt;/span&gt;&lt;/span&gt;&lt;span&gt;&#9;&lt;/span&gt;&lt;span&gt;$8.50&lt;/span&gt;&lt;br&gt;&lt;span&gt;Garlic Shrimp Pizza&amp;nbsp;&lt;span style=&quot;white-space: pre&quot;&gt;&#9;&lt;/span&gt;&lt;/span&gt;&lt;span&gt;&#9;&lt;/span&gt;&lt;span&gt;$13.50&lt;/span&gt;&lt;br&gt;&lt;br&gt;&lt;span&gt;Delivery Fee&amp;nbsp;&lt;/span&gt;&lt;span&gt;&#9;&lt;span style=&quot;white-space: pre&quot;&gt;&#9;&lt;/span&gt;&lt;span style=&quot;white-space: pre&quot;&gt;&#9;&lt;/span&gt;&lt;span style=&quot;white-space: pre&quot;&gt;&#9;&lt;/span&gt;&lt;/span&gt;&lt;span&gt;&#9;&lt;/span&gt;&lt;span&gt;&#9;&lt;/span&gt;&lt;span&gt;$3.00&lt;/span&gt;&lt;br&gt;&lt;span&gt;Delivery Cost:&amp;nbsp;&lt;/span&gt;&lt;span&gt;&#9;&lt;span style=&quot;white-space: pre&quot;&gt;&#9;&lt;/span&gt;&lt;span style=&quot;white-space: pre&quot;&gt;&#9;&lt;/span&gt;&lt;/span&gt;&lt;span&gt;&#9;&lt;/span&gt;&lt;span&gt;&#9;&lt;/span&gt;&lt;span&gt;$33.50&lt;/span&gt;" style="rounded=0;whiteSpace=wrap;html=1;fontSize=16;strokeColor=#141414;align=left;" parent="1" vertex="1">
                    <mxGeometry x="1280" y="630" width="380" height="165" as="geometry"/>
                </mxCell>
                <mxCell id="137" value="&lt;font style=&quot;font-size: 16px&quot;&gt;Customer Details&lt;/font&gt;" style="rounded=0;whiteSpace=wrap;html=1;fontFamily=Helvetica;fontSize=19;fontColor=default;strokeColor=#141414;fillColor=default;" parent="1" vertex="1">
                    <mxGeometry x="1355" y="885" width="230" height="30" as="geometry"/>
                </mxCell>
                <mxCell id="138" value="&lt;b&gt;NEXT&lt;/b&gt;" style="rounded=1;whiteSpace=wrap;html=1;labelBackgroundColor=#66B2FF;fontFamily=Helvetica;fontSize=15;fontColor=#141414;strokeColor=#3399FF;fillColor=#66B2FF;" parent="1" vertex="1">
                    <mxGeometry x="1427.5" y="190" width="120" height="40" as="geometry"/>
                </mxCell>
                <mxCell id="155" value="&lt;b&gt;Cancel Order&lt;/b&gt;" style="rounded=1;whiteSpace=wrap;html=1;labelBackgroundColor=#66B2FF;fontFamily=Helvetica;fontSize=15;fontColor=#141414;strokeColor=#3399FF;fillColor=#66B2FF;" parent="1" vertex="1">
                    <mxGeometry x="1270" y="1125" width="120" height="40" as="geometry"/>
                </mxCell>
                <mxCell id="156" value="&lt;b&gt;Cancel Order&lt;/b&gt;" style="rounded=1;whiteSpace=wrap;html=1;labelBackgroundColor=#66B2FF;fontFamily=Helvetica;fontSize=15;fontColor=#141414;strokeColor=#3399FF;fillColor=#66B2FF;" parent="1" vertex="1">
                    <mxGeometry x="210" y="780" width="120" height="40" as="geometry"/>
                </mxCell>
                <mxCell id="158" value="$0.00" style="rounded=0;whiteSpace=wrap;html=1;labelBackgroundColor=#FFFFFF;fontFamily=Helvetica;fontSize=15;fontColor=#141414;fillColor=#FFFFFF;strokeColor=#FFFFFF;" parent="1" vertex="1">
                    <mxGeometry x="510" y="559" width="120" height="60" as="geometry"/>
                </mxCell>
                <mxCell id="159" value="$0.00" style="rounded=0;whiteSpace=wrap;html=1;labelBackgroundColor=#FFFFFF;fontFamily=Helvetica;fontSize=15;fontColor=#141414;fillColor=#FFFFFF;strokeColor=#FFFFFF;" parent="1" vertex="1">
                    <mxGeometry x="510" y="619" width="120" height="60" as="geometry"/>
                </mxCell>
                <mxCell id="161" value="&lt;p style=&quot;line-height: 1.2&quot;&gt;Cheese Pizza&lt;/p&gt;&lt;p style=&quot;line-height: 1.2&quot;&gt;BBQ Beef and Onion Pizza&lt;/p&gt;&lt;p style=&quot;line-height: 1.2&quot;&gt;...&lt;br&gt;&lt;/p&gt;" style="rounded=1;whiteSpace=wrap;html=1;labelBackgroundColor=#FFFFFF;fontFamily=Helvetica;fontSize=15;fontColor=#141414;fillColor=#FFFFFF;align=left;" parent="1" vertex="1">
                    <mxGeometry x="185" y="530" width="190" height="150" as="geometry"/>
                </mxCell>
                <mxCell id="164" value="&lt;font size=&quot;1&quot;&gt;&lt;b style=&quot;font-size: 32px&quot;&gt;Pizza Order&lt;/b&gt;&lt;/font&gt;" style="rounded=0;whiteSpace=wrap;html=1;" vertex="1" parent="1">
                    <mxGeometry x="750" y="110" width="230" height="710" as="geometry"/>
                </mxCell>
            </root>
        </mxGraphModel>
    </diagram>
    <diagram id="GlkimJcpATCNn6RtaDOo" name="PIZZA SLIDE">
        <mxGraphModel dx="1082" dy="790" grid="1" gridSize="10" guides="1" tooltips="1" connect="1" arrows="1" fold="1" page="1" pageScale="1" pageWidth="850" pageHeight="1100" math="0" shadow="0">
            <root>
                <mxCell id="XR44AwQ2NwxzT8CzdS9T-0"/>
                <mxCell id="XR44AwQ2NwxzT8CzdS9T-1" parent="XR44AwQ2NwxzT8CzdS9T-0"/>
                <mxCell id="dac6--zJnHFsSlpAgKu--0" value="" style="rounded=0;whiteSpace=wrap;html=1;" parent="XR44AwQ2NwxzT8CzdS9T-1" vertex="1">
                    <mxGeometry x="80" width="670" height="40" as="geometry"/>
                </mxCell>
                <mxCell id="XR44AwQ2NwxzT8CzdS9T-2" value="DREAM PIZZA&#10;&lt;HEADER&gt;" style="swimlane;fontFamily=Comic Sans MS;fontSize=16;fontStyle=2;startSize=40;" parent="XR44AwQ2NwxzT8CzdS9T-1" vertex="1">
                    <mxGeometry x="80" y="40" width="670" height="560" as="geometry">
                        <mxRectangle x="80" y="40" width="150" height="40" as="alternateBounds"/>
                    </mxGeometry>
                </mxCell>
                <mxCell id="XR44AwQ2NwxzT8CzdS9T-4" value="PASTE ORDER&amp;nbsp; HERE&amp;nbsp;" style="rounded=0;whiteSpace=wrap;html=1;fontFamily=Comic Sans MS;fontSize=16;" parent="XR44AwQ2NwxzT8CzdS9T-2" vertex="1">
                    <mxGeometry x="520" y="40" width="150" height="520" as="geometry"/>
                </mxCell>
                <mxCell id="XR44AwQ2NwxzT8CzdS9T-5" value="CHECKOUT BUTTON" style="rounded=0;whiteSpace=wrap;html=1;fontFamily=Comic Sans MS;fontSize=16;fillColor=#60a917;strokeColor=#2D7600;fontColor=#ffffff;" parent="XR44AwQ2NwxzT8CzdS9T-2" vertex="1">
                    <mxGeometry x="520" y="520" width="150" height="40" as="geometry"/>
                </mxCell>
                <mxCell id="XR44AwQ2NwxzT8CzdS9T-6" value="PIZZAS" style="rounded=0;whiteSpace=wrap;html=1;fontFamily=Comic Sans MS;fontSize=16;fillColor=none;" parent="XR44AwQ2NwxzT8CzdS9T-2" vertex="1">
                    <mxGeometry x="10" y="50" width="110" height="40" as="geometry"/>
                </mxCell>
                <mxCell id="XR44AwQ2NwxzT8CzdS9T-7" value="DRINKS" style="rounded=0;whiteSpace=wrap;html=1;fontFamily=Comic Sans MS;fontSize=16;fillColor=none;" parent="XR44AwQ2NwxzT8CzdS9T-2" vertex="1">
                    <mxGeometry x="140" y="50" width="110" height="40" as="geometry"/>
                </mxCell>
                <mxCell id="XR44AwQ2NwxzT8CzdS9T-8" value="SIDES" style="rounded=0;whiteSpace=wrap;html=1;fontFamily=Comic Sans MS;fontSize=16;fillColor=none;" parent="XR44AwQ2NwxzT8CzdS9T-2" vertex="1">
                    <mxGeometry x="270" y="50" width="110" height="40" as="geometry"/>
                </mxCell>
                <mxCell id="XR44AwQ2NwxzT8CzdS9T-9" value="MEAL DEALS" style="rounded=0;whiteSpace=wrap;html=1;fontFamily=Comic Sans MS;fontSize=16;fillColor=none;" parent="XR44AwQ2NwxzT8CzdS9T-2" vertex="1">
                    <mxGeometry x="400" y="50" width="110" height="40" as="geometry"/>
                </mxCell>
                <mxCell id="XR44AwQ2NwxzT8CzdS9T-10" value="PIZZA 1.&lt;br&gt;&amp;lt;ordered list&amp;gt;" style="rounded=1;whiteSpace=wrap;html=1;fontFamily=Comic Sans MS;fontSize=16;fillColor=none;" parent="XR44AwQ2NwxzT8CzdS9T-2" vertex="1">
                    <mxGeometry x="10" y="140" width="110" height="100" as="geometry"/>
                </mxCell>
                <mxCell id="XR44AwQ2NwxzT8CzdS9T-19" value="PIZZA 2.&lt;br&gt;&amp;lt;ordered list&amp;gt;" style="rounded=1;whiteSpace=wrap;html=1;fontFamily=Comic Sans MS;fontSize=16;fillColor=none;" parent="XR44AwQ2NwxzT8CzdS9T-2" vertex="1">
                    <mxGeometry x="140" y="140" width="110" height="100" as="geometry"/>
                </mxCell>
                <mxCell id="XR44AwQ2NwxzT8CzdS9T-20" value="PIZZA 3.&lt;br&gt;&amp;lt;ordered list&amp;gt;" style="rounded=1;whiteSpace=wrap;html=1;fontFamily=Comic Sans MS;fontSize=16;fillColor=none;" parent="XR44AwQ2NwxzT8CzdS9T-2" vertex="1">
                    <mxGeometry x="270" y="140" width="110" height="100" as="geometry"/>
                </mxCell>
                <mxCell id="XR44AwQ2NwxzT8CzdS9T-21" value="PIZZA 4.&lt;br&gt;&amp;lt;ordered list&amp;gt;" style="rounded=1;whiteSpace=wrap;html=1;fontFamily=Comic Sans MS;fontSize=16;fillColor=none;" parent="XR44AwQ2NwxzT8CzdS9T-2" vertex="1">
                    <mxGeometry x="400" y="140" width="110" height="100" as="geometry"/>
                </mxCell>
                <mxCell id="XR44AwQ2NwxzT8CzdS9T-22" value="PIZZA 5.&lt;br&gt;&amp;lt;ordered list&amp;gt;" style="rounded=1;whiteSpace=wrap;html=1;fontFamily=Comic Sans MS;fontSize=16;fillColor=none;" parent="XR44AwQ2NwxzT8CzdS9T-2" vertex="1">
                    <mxGeometry x="10" y="280" width="110" height="100" as="geometry"/>
                </mxCell>
                <mxCell id="XR44AwQ2NwxzT8CzdS9T-23" value="PIZZA 6.&lt;br&gt;&amp;lt;ordered list&amp;gt;" style="rounded=1;whiteSpace=wrap;html=1;fontFamily=Comic Sans MS;fontSize=16;fillColor=none;" parent="XR44AwQ2NwxzT8CzdS9T-2" vertex="1">
                    <mxGeometry x="140" y="280" width="110" height="100" as="geometry"/>
                </mxCell>
                <mxCell id="XR44AwQ2NwxzT8CzdS9T-24" value="PIZZA 7.&lt;br&gt;&amp;lt;ordered list&amp;gt;" style="rounded=1;whiteSpace=wrap;html=1;fontFamily=Comic Sans MS;fontSize=16;fillColor=none;" parent="XR44AwQ2NwxzT8CzdS9T-2" vertex="1">
                    <mxGeometry x="270" y="280" width="110" height="100" as="geometry"/>
                </mxCell>
                <mxCell id="XR44AwQ2NwxzT8CzdS9T-25" value="PIZZA 8.&lt;br&gt;&amp;lt;ordered list&amp;gt;" style="rounded=1;whiteSpace=wrap;html=1;fontFamily=Comic Sans MS;fontSize=16;fillColor=none;" parent="XR44AwQ2NwxzT8CzdS9T-2" vertex="1">
                    <mxGeometry x="400" y="280" width="110" height="100" as="geometry"/>
                </mxCell>
                <mxCell id="XR44AwQ2NwxzT8CzdS9T-26" value="PIZZA 9.&lt;br&gt;&amp;lt;ordered list&amp;gt;" style="rounded=1;whiteSpace=wrap;html=1;fontFamily=Comic Sans MS;fontSize=16;fillColor=none;" parent="XR44AwQ2NwxzT8CzdS9T-2" vertex="1">
                    <mxGeometry x="10" y="420" width="110" height="100" as="geometry"/>
                </mxCell>
                <mxCell id="XR44AwQ2NwxzT8CzdS9T-27" value="PIZZA 10.&lt;br&gt;&amp;lt;ordered list&amp;gt;" style="rounded=1;whiteSpace=wrap;html=1;fontFamily=Comic Sans MS;fontSize=16;fillColor=none;" parent="XR44AwQ2NwxzT8CzdS9T-2" vertex="1">
                    <mxGeometry x="140" y="420" width="110" height="100" as="geometry"/>
                </mxCell>
                <mxCell id="XR44AwQ2NwxzT8CzdS9T-28" value="PIZZA 11.&lt;br&gt;&amp;lt;ordered list&amp;gt;" style="rounded=1;whiteSpace=wrap;html=1;fontFamily=Comic Sans MS;fontSize=16;fillColor=none;" parent="XR44AwQ2NwxzT8CzdS9T-2" vertex="1">
                    <mxGeometry x="270" y="420" width="110" height="100" as="geometry"/>
                </mxCell>
                <mxCell id="XR44AwQ2NwxzT8CzdS9T-29" value="PIZZA 12.&lt;br&gt;&amp;lt;ordered list&amp;gt;" style="rounded=1;whiteSpace=wrap;html=1;fontFamily=Comic Sans MS;fontSize=16;fillColor=none;" parent="XR44AwQ2NwxzT8CzdS9T-2" vertex="1">
                    <mxGeometry x="400" y="420" width="110" height="100" as="geometry"/>
                </mxCell>
                <mxCell id="dac6--zJnHFsSlpAgKu--3" value="" style="ellipse;whiteSpace=wrap;html=1;aspect=fixed;" parent="XR44AwQ2NwxzT8CzdS9T-1" vertex="1">
                    <mxGeometry x="650" width="40" height="40" as="geometry"/>
                </mxCell>
                <mxCell id="dac6--zJnHFsSlpAgKu--4" value="" style="shape=sumEllipse;perimeter=ellipsePerimeter;whiteSpace=wrap;html=1;backgroundOutline=1;" parent="XR44AwQ2NwxzT8CzdS9T-1" vertex="1">
                    <mxGeometry x="700" width="40" height="40" as="geometry"/>
                </mxCell>
                <mxCell id="dac6--zJnHFsSlpAgKu--7" value="" style="shape=lineEllipse;perimeter=ellipsePerimeter;whiteSpace=wrap;html=1;backgroundOutline=1;" parent="XR44AwQ2NwxzT8CzdS9T-1" vertex="1">
                    <mxGeometry x="600" width="40" height="40" as="geometry"/>
                </mxCell>
                <mxCell id="dac6--zJnHFsSlpAgKu--9" value="" style="shape=note;whiteSpace=wrap;html=1;backgroundOutline=1;darkOpacity=0.05;size=13;" parent="XR44AwQ2NwxzT8CzdS9T-1" vertex="1">
                    <mxGeometry x="660" y="5" width="20" height="30" as="geometry"/>
                </mxCell>
            </root>
        </mxGraphModel>
    </diagram>
    <diagram id="N8Tx15XElrd2MbyXIhk7" name="DRINK SLIDE">
        <mxGraphModel dx="1025" dy="790" grid="1" gridSize="10" guides="1" tooltips="1" connect="1" arrows="1" fold="1" page="1" pageScale="1" pageWidth="850" pageHeight="1100" math="0" shadow="0">
            <root>
                <mxCell id="nKBoxALqI2H6ZXFP7PU8-0"/>
                <mxCell id="nKBoxALqI2H6ZXFP7PU8-1" parent="nKBoxALqI2H6ZXFP7PU8-0"/>
                <mxCell id="nKBoxALqI2H6ZXFP7PU8-2" value="DREAM PIZZA&#10;&lt;HEADER&gt;" style="swimlane;fontFamily=Comic Sans MS;fontSize=16;fontStyle=2;startSize=40;" parent="nKBoxALqI2H6ZXFP7PU8-1" vertex="1">
                    <mxGeometry x="80" y="40" width="670" height="560" as="geometry">
                        <mxRectangle x="80" y="40" width="150" height="40" as="alternateBounds"/>
                    </mxGeometry>
                </mxCell>
                <mxCell id="nKBoxALqI2H6ZXFP7PU8-3" value="PASTE ORDER&amp;nbsp; HERE&amp;nbsp;" style="rounded=0;whiteSpace=wrap;html=1;fontFamily=Comic Sans MS;fontSize=16;" parent="nKBoxALqI2H6ZXFP7PU8-2" vertex="1">
                    <mxGeometry x="520" y="40" width="150" height="520" as="geometry"/>
                </mxCell>
                <mxCell id="nKBoxALqI2H6ZXFP7PU8-4" value="CHECKOUT BUTTON" style="rounded=0;whiteSpace=wrap;html=1;fontFamily=Comic Sans MS;fontSize=16;fillColor=#60a917;strokeColor=#2D7600;fontColor=#ffffff;" parent="nKBoxALqI2H6ZXFP7PU8-2" vertex="1">
                    <mxGeometry x="520" y="520" width="150" height="40" as="geometry"/>
                </mxCell>
                <mxCell id="nKBoxALqI2H6ZXFP7PU8-5" value="PIZZAS" style="rounded=0;whiteSpace=wrap;html=1;fontFamily=Comic Sans MS;fontSize=16;fillColor=none;" parent="nKBoxALqI2H6ZXFP7PU8-2" vertex="1">
                    <mxGeometry x="10" y="50" width="110" height="40" as="geometry"/>
                </mxCell>
                <mxCell id="nKBoxALqI2H6ZXFP7PU8-6" value="DRINKS" style="rounded=0;whiteSpace=wrap;html=1;fontFamily=Comic Sans MS;fontSize=16;fillColor=none;" parent="nKBoxALqI2H6ZXFP7PU8-2" vertex="1">
                    <mxGeometry x="140" y="50" width="110" height="40" as="geometry"/>
                </mxCell>
                <mxCell id="nKBoxALqI2H6ZXFP7PU8-7" value="SIDES" style="rounded=0;whiteSpace=wrap;html=1;fontFamily=Comic Sans MS;fontSize=16;fillColor=none;" parent="nKBoxALqI2H6ZXFP7PU8-2" vertex="1">
                    <mxGeometry x="270" y="50" width="110" height="40" as="geometry"/>
                </mxCell>
                <mxCell id="nKBoxALqI2H6ZXFP7PU8-8" value="MEAL DEALS" style="rounded=0;whiteSpace=wrap;html=1;fontFamily=Comic Sans MS;fontSize=16;fillColor=none;" parent="nKBoxALqI2H6ZXFP7PU8-2" vertex="1">
                    <mxGeometry x="400" y="50" width="110" height="40" as="geometry"/>
                </mxCell>
                <mxCell id="nKBoxALqI2H6ZXFP7PU8-9" value="DRINK 1.&lt;br&gt;&amp;lt;ordered list&amp;gt;" style="rounded=1;whiteSpace=wrap;html=1;fontFamily=Comic Sans MS;fontSize=16;fillColor=none;" parent="nKBoxALqI2H6ZXFP7PU8-2" vertex="1">
                    <mxGeometry x="10" y="140" width="110" height="100" as="geometry"/>
                </mxCell>
                <mxCell id="nKBoxALqI2H6ZXFP7PU8-10" value="DRINK 2.&lt;br&gt;&amp;lt;ordered list&amp;gt;" style="rounded=1;whiteSpace=wrap;html=1;fontFamily=Comic Sans MS;fontSize=16;fillColor=none;" parent="nKBoxALqI2H6ZXFP7PU8-2" vertex="1">
                    <mxGeometry x="140" y="140" width="110" height="100" as="geometry"/>
                </mxCell>
                <mxCell id="nKBoxALqI2H6ZXFP7PU8-11" value="DRINK 3.&lt;br&gt;&amp;lt;ordered list&amp;gt;" style="rounded=1;whiteSpace=wrap;html=1;fontFamily=Comic Sans MS;fontSize=16;fillColor=none;" parent="nKBoxALqI2H6ZXFP7PU8-2" vertex="1">
                    <mxGeometry x="270" y="140" width="110" height="100" as="geometry"/>
                </mxCell>
                <mxCell id="nKBoxALqI2H6ZXFP7PU8-12" value="DRINK 4.&lt;br&gt;&amp;lt;ordered list&amp;gt;" style="rounded=1;whiteSpace=wrap;html=1;fontFamily=Comic Sans MS;fontSize=16;fillColor=none;" parent="nKBoxALqI2H6ZXFP7PU8-2" vertex="1">
                    <mxGeometry x="400" y="140" width="110" height="100" as="geometry"/>
                </mxCell>
                <mxCell id="nKBoxALqI2H6ZXFP7PU8-13" value="DRINK 5.&lt;br&gt;&amp;lt;ordered list&amp;gt;" style="rounded=1;whiteSpace=wrap;html=1;fontFamily=Comic Sans MS;fontSize=16;fillColor=none;" parent="nKBoxALqI2H6ZXFP7PU8-2" vertex="1">
                    <mxGeometry x="10" y="280" width="110" height="100" as="geometry"/>
                </mxCell>
                <mxCell id="nKBoxALqI2H6ZXFP7PU8-14" value="DRINK 6.&lt;br&gt;&amp;lt;ordered list&amp;gt;" style="rounded=1;whiteSpace=wrap;html=1;fontFamily=Comic Sans MS;fontSize=16;fillColor=none;" parent="nKBoxALqI2H6ZXFP7PU8-2" vertex="1">
                    <mxGeometry x="140" y="280" width="110" height="100" as="geometry"/>
                </mxCell>
                <mxCell id="nKBoxALqI2H6ZXFP7PU8-15" value="DRINK 7.&lt;br&gt;&amp;lt;ordered list&amp;gt;" style="rounded=1;whiteSpace=wrap;html=1;fontFamily=Comic Sans MS;fontSize=16;fillColor=none;" parent="nKBoxALqI2H6ZXFP7PU8-2" vertex="1">
                    <mxGeometry x="270" y="280" width="110" height="100" as="geometry"/>
                </mxCell>
                <mxCell id="nKBoxALqI2H6ZXFP7PU8-16" value="DRINK 8.&lt;br&gt;&amp;lt;ordered list&amp;gt;" style="rounded=1;whiteSpace=wrap;html=1;fontFamily=Comic Sans MS;fontSize=16;fillColor=none;" parent="nKBoxALqI2H6ZXFP7PU8-2" vertex="1">
                    <mxGeometry x="400" y="280" width="110" height="100" as="geometry"/>
                </mxCell>
                <mxCell id="nKBoxALqI2H6ZXFP7PU8-17" value="DRINK 9.&lt;br&gt;&amp;lt;ordered list&amp;gt;" style="rounded=1;whiteSpace=wrap;html=1;fontFamily=Comic Sans MS;fontSize=16;fillColor=none;" parent="nKBoxALqI2H6ZXFP7PU8-2" vertex="1">
                    <mxGeometry x="10" y="420" width="110" height="100" as="geometry"/>
                </mxCell>
                <mxCell id="nKBoxALqI2H6ZXFP7PU8-18" value="DRINK 10.&lt;br&gt;&amp;lt;ordered list&amp;gt;" style="rounded=1;whiteSpace=wrap;html=1;fontFamily=Comic Sans MS;fontSize=16;fillColor=none;" parent="nKBoxALqI2H6ZXFP7PU8-2" vertex="1">
                    <mxGeometry x="140" y="420" width="110" height="100" as="geometry"/>
                </mxCell>
                <mxCell id="LuCzs5bWiv7ZcgilRfu_-0" value="" style="rounded=0;whiteSpace=wrap;html=1;" parent="nKBoxALqI2H6ZXFP7PU8-1" vertex="1">
                    <mxGeometry x="80" width="670" height="40" as="geometry"/>
                </mxCell>
                <mxCell id="LuCzs5bWiv7ZcgilRfu_-1" value="" style="ellipse;whiteSpace=wrap;html=1;aspect=fixed;" parent="nKBoxALqI2H6ZXFP7PU8-1" vertex="1">
                    <mxGeometry x="650" width="40" height="40" as="geometry"/>
                </mxCell>
                <mxCell id="LuCzs5bWiv7ZcgilRfu_-2" value="" style="shape=sumEllipse;perimeter=ellipsePerimeter;whiteSpace=wrap;html=1;backgroundOutline=1;" parent="nKBoxALqI2H6ZXFP7PU8-1" vertex="1">
                    <mxGeometry x="700" width="40" height="40" as="geometry"/>
                </mxCell>
                <mxCell id="LuCzs5bWiv7ZcgilRfu_-3" value="" style="shape=lineEllipse;perimeter=ellipsePerimeter;whiteSpace=wrap;html=1;backgroundOutline=1;" parent="nKBoxALqI2H6ZXFP7PU8-1" vertex="1">
                    <mxGeometry x="600" width="40" height="40" as="geometry"/>
                </mxCell>
                <mxCell id="LuCzs5bWiv7ZcgilRfu_-4" value="" style="shape=note;whiteSpace=wrap;html=1;backgroundOutline=1;darkOpacity=0.05;size=13;" parent="nKBoxALqI2H6ZXFP7PU8-1" vertex="1">
                    <mxGeometry x="660" y="5" width="20" height="30" as="geometry"/>
                </mxCell>
            </root>
        </mxGraphModel>
    </diagram>
    <diagram id="LnDpVTBR1AAl2wpAe6pC" name="SIDES SLIDE">
        <mxGraphModel dx="1025" dy="790" grid="1" gridSize="10" guides="1" tooltips="1" connect="1" arrows="1" fold="1" page="1" pageScale="1" pageWidth="850" pageHeight="1100" math="0" shadow="0">
            <root>
                <mxCell id="dUsbbLqPy4l3oWywdBTn-0"/>
                <mxCell id="dUsbbLqPy4l3oWywdBTn-1" parent="dUsbbLqPy4l3oWywdBTn-0"/>
                <mxCell id="dUsbbLqPy4l3oWywdBTn-2" value="DREAM PIZZA&#10;&lt;HEADER&gt;" style="swimlane;fontFamily=Comic Sans MS;fontSize=16;fontStyle=2;startSize=40;" parent="dUsbbLqPy4l3oWywdBTn-1" vertex="1">
                    <mxGeometry x="80" y="40" width="670" height="560" as="geometry">
                        <mxRectangle x="80" y="40" width="150" height="40" as="alternateBounds"/>
                    </mxGeometry>
                </mxCell>
                <mxCell id="dUsbbLqPy4l3oWywdBTn-3" value="PASTE ORDER&amp;nbsp; HERE&amp;nbsp;" style="rounded=0;whiteSpace=wrap;html=1;fontFamily=Comic Sans MS;fontSize=16;" parent="dUsbbLqPy4l3oWywdBTn-2" vertex="1">
                    <mxGeometry x="520" y="40" width="150" height="520" as="geometry"/>
                </mxCell>
                <mxCell id="dUsbbLqPy4l3oWywdBTn-4" value="CHECKOUT BUTTON" style="rounded=0;whiteSpace=wrap;html=1;fontFamily=Comic Sans MS;fontSize=16;fillColor=#60a917;strokeColor=#2D7600;fontColor=#ffffff;" parent="dUsbbLqPy4l3oWywdBTn-2" vertex="1">
                    <mxGeometry x="520" y="520" width="150" height="40" as="geometry"/>
                </mxCell>
                <mxCell id="dUsbbLqPy4l3oWywdBTn-5" value="PIZZAS" style="rounded=0;whiteSpace=wrap;html=1;fontFamily=Comic Sans MS;fontSize=16;fillColor=none;" parent="dUsbbLqPy4l3oWywdBTn-2" vertex="1">
                    <mxGeometry x="10" y="50" width="110" height="40" as="geometry"/>
                </mxCell>
                <mxCell id="dUsbbLqPy4l3oWywdBTn-6" value="DRINKS" style="rounded=0;whiteSpace=wrap;html=1;fontFamily=Comic Sans MS;fontSize=16;fillColor=none;" parent="dUsbbLqPy4l3oWywdBTn-2" vertex="1">
                    <mxGeometry x="140" y="50" width="110" height="40" as="geometry"/>
                </mxCell>
                <mxCell id="dUsbbLqPy4l3oWywdBTn-7" value="SIDES" style="rounded=0;whiteSpace=wrap;html=1;fontFamily=Comic Sans MS;fontSize=16;fillColor=none;" parent="dUsbbLqPy4l3oWywdBTn-2" vertex="1">
                    <mxGeometry x="270" y="50" width="110" height="40" as="geometry"/>
                </mxCell>
                <mxCell id="dUsbbLqPy4l3oWywdBTn-8" value="MEAL DEALS" style="rounded=0;whiteSpace=wrap;html=1;fontFamily=Comic Sans MS;fontSize=16;fillColor=none;" parent="dUsbbLqPy4l3oWywdBTn-2" vertex="1">
                    <mxGeometry x="400" y="50" width="110" height="40" as="geometry"/>
                </mxCell>
                <mxCell id="dUsbbLqPy4l3oWywdBTn-9" value="SIDE 1.&lt;br&gt;&amp;lt;ordered list&amp;gt;" style="rounded=1;whiteSpace=wrap;html=1;fontFamily=Comic Sans MS;fontSize=16;fillColor=none;" parent="dUsbbLqPy4l3oWywdBTn-2" vertex="1">
                    <mxGeometry x="10" y="140" width="110" height="100" as="geometry"/>
                </mxCell>
                <mxCell id="dUsbbLqPy4l3oWywdBTn-10" value="SIDE 2.&lt;br&gt;&amp;lt;ordered list&amp;gt;" style="rounded=1;whiteSpace=wrap;html=1;fontFamily=Comic Sans MS;fontSize=16;fillColor=none;" parent="dUsbbLqPy4l3oWywdBTn-2" vertex="1">
                    <mxGeometry x="140" y="140" width="110" height="100" as="geometry"/>
                </mxCell>
                <mxCell id="dUsbbLqPy4l3oWywdBTn-11" value="SIDE 3.&lt;br&gt;&amp;lt;ordered list&amp;gt;" style="rounded=1;whiteSpace=wrap;html=1;fontFamily=Comic Sans MS;fontSize=16;fillColor=none;" parent="dUsbbLqPy4l3oWywdBTn-2" vertex="1">
                    <mxGeometry x="270" y="140" width="110" height="100" as="geometry"/>
                </mxCell>
                <mxCell id="dUsbbLqPy4l3oWywdBTn-12" value="SIDE 4.&lt;br&gt;&amp;lt;ordered list&amp;gt;" style="rounded=1;whiteSpace=wrap;html=1;fontFamily=Comic Sans MS;fontSize=16;fillColor=none;" parent="dUsbbLqPy4l3oWywdBTn-2" vertex="1">
                    <mxGeometry x="400" y="140" width="110" height="100" as="geometry"/>
                </mxCell>
                <mxCell id="dUsbbLqPy4l3oWywdBTn-13" value="SIDE 5.&lt;br&gt;&amp;lt;ordered list&amp;gt;" style="rounded=1;whiteSpace=wrap;html=1;fontFamily=Comic Sans MS;fontSize=16;fillColor=none;" parent="dUsbbLqPy4l3oWywdBTn-2" vertex="1">
                    <mxGeometry x="10" y="280" width="110" height="100" as="geometry"/>
                </mxCell>
                <mxCell id="dUsbbLqPy4l3oWywdBTn-14" value="SIDE 6.&lt;br&gt;&amp;lt;ordered list&amp;gt;" style="rounded=1;whiteSpace=wrap;html=1;fontFamily=Comic Sans MS;fontSize=16;fillColor=none;" parent="dUsbbLqPy4l3oWywdBTn-2" vertex="1">
                    <mxGeometry x="140" y="280" width="110" height="100" as="geometry"/>
                </mxCell>
                <mxCell id="dUsbbLqPy4l3oWywdBTn-15" value="SIDE 7.&lt;br&gt;&amp;lt;ordered list&amp;gt;" style="rounded=1;whiteSpace=wrap;html=1;fontFamily=Comic Sans MS;fontSize=16;fillColor=none;" parent="dUsbbLqPy4l3oWywdBTn-2" vertex="1">
                    <mxGeometry x="270" y="280" width="110" height="100" as="geometry"/>
                </mxCell>
                <mxCell id="dUsbbLqPy4l3oWywdBTn-16" value="SIDE 8.&lt;br&gt;&amp;lt;ordered list&amp;gt;" style="rounded=1;whiteSpace=wrap;html=1;fontFamily=Comic Sans MS;fontSize=16;fillColor=none;" parent="dUsbbLqPy4l3oWywdBTn-2" vertex="1">
                    <mxGeometry x="400" y="280" width="110" height="100" as="geometry"/>
                </mxCell>
                <mxCell id="dUsbbLqPy4l3oWywdBTn-17" value="SIDE 9.&lt;br&gt;&amp;lt;ordered list&amp;gt;" style="rounded=1;whiteSpace=wrap;html=1;fontFamily=Comic Sans MS;fontSize=16;fillColor=none;" parent="dUsbbLqPy4l3oWywdBTn-2" vertex="1">
                    <mxGeometry x="10" y="420" width="110" height="100" as="geometry"/>
                </mxCell>
                <mxCell id="dUsbbLqPy4l3oWywdBTn-18" value="SIDE 10.&lt;br&gt;&amp;lt;ordered list&amp;gt;" style="rounded=1;whiteSpace=wrap;html=1;fontFamily=Comic Sans MS;fontSize=16;fillColor=none;" parent="dUsbbLqPy4l3oWywdBTn-2" vertex="1">
                    <mxGeometry x="140" y="420" width="110" height="100" as="geometry"/>
                </mxCell>
                <mxCell id="dUsbbLqPy4l3oWywdBTn-19" value="SIDE 11.&lt;br&gt;&amp;lt;ordered list&amp;gt;" style="rounded=1;whiteSpace=wrap;html=1;fontFamily=Comic Sans MS;fontSize=16;fillColor=none;" parent="dUsbbLqPy4l3oWywdBTn-2" vertex="1">
                    <mxGeometry x="270" y="420" width="110" height="100" as="geometry"/>
                </mxCell>
                <mxCell id="dUsbbLqPy4l3oWywdBTn-20" value="SIDE 12.&lt;br&gt;&amp;lt;ordered list&amp;gt;" style="rounded=1;whiteSpace=wrap;html=1;fontFamily=Comic Sans MS;fontSize=16;fillColor=none;" parent="dUsbbLqPy4l3oWywdBTn-2" vertex="1">
                    <mxGeometry x="400" y="420" width="110" height="100" as="geometry"/>
                </mxCell>
                <mxCell id="nf5utEZf_GiBws5jMMiE-0" value="" style="rounded=0;whiteSpace=wrap;html=1;" parent="dUsbbLqPy4l3oWywdBTn-1" vertex="1">
                    <mxGeometry x="80" width="670" height="40" as="geometry"/>
                </mxCell>
                <mxCell id="nf5utEZf_GiBws5jMMiE-1" value="" style="ellipse;whiteSpace=wrap;html=1;aspect=fixed;" parent="dUsbbLqPy4l3oWywdBTn-1" vertex="1">
                    <mxGeometry x="650" width="40" height="40" as="geometry"/>
                </mxCell>
                <mxCell id="nf5utEZf_GiBws5jMMiE-2" value="" style="shape=sumEllipse;perimeter=ellipsePerimeter;whiteSpace=wrap;html=1;backgroundOutline=1;" parent="dUsbbLqPy4l3oWywdBTn-1" vertex="1">
                    <mxGeometry x="700" width="40" height="40" as="geometry"/>
                </mxCell>
                <mxCell id="nf5utEZf_GiBws5jMMiE-3" value="" style="shape=lineEllipse;perimeter=ellipsePerimeter;whiteSpace=wrap;html=1;backgroundOutline=1;" parent="dUsbbLqPy4l3oWywdBTn-1" vertex="1">
                    <mxGeometry x="600" width="40" height="40" as="geometry"/>
                </mxCell>
                <mxCell id="nf5utEZf_GiBws5jMMiE-4" value="" style="shape=note;whiteSpace=wrap;html=1;backgroundOutline=1;darkOpacity=0.05;size=13;" parent="dUsbbLqPy4l3oWywdBTn-1" vertex="1">
                    <mxGeometry x="660" y="5" width="20" height="30" as="geometry"/>
                </mxCell>
            </root>
        </mxGraphModel>
    </diagram>
    <diagram name="MEAL DEALS SLIDE" id="xH2Lnw0Mh79M9ccgUUke">
        <mxGraphModel dx="1025" dy="790" grid="1" gridSize="10" guides="1" tooltips="1" connect="1" arrows="1" fold="1" page="1" pageScale="1" pageWidth="850" pageHeight="1100" math="0" shadow="0">
            <root>
                <mxCell id="ZsuVSrsKeIJ1jZ00tNGm-0"/>
                <mxCell id="ZsuVSrsKeIJ1jZ00tNGm-1" parent="ZsuVSrsKeIJ1jZ00tNGm-0"/>
                <mxCell id="ZsuVSrsKeIJ1jZ00tNGm-2" value="DREAM PIZZA&#10;&lt;HEADER&gt;" style="swimlane;fontFamily=Comic Sans MS;fontSize=16;fontStyle=2;startSize=40;" parent="ZsuVSrsKeIJ1jZ00tNGm-1" vertex="1">
                    <mxGeometry x="80" y="40" width="670" height="560" as="geometry">
                        <mxRectangle x="80" y="40" width="150" height="40" as="alternateBounds"/>
                    </mxGeometry>
                </mxCell>
                <mxCell id="ZsuVSrsKeIJ1jZ00tNGm-3" value="PASTE ORDER&amp;nbsp; HERE&amp;nbsp;" style="rounded=0;whiteSpace=wrap;html=1;fontFamily=Comic Sans MS;fontSize=16;" parent="ZsuVSrsKeIJ1jZ00tNGm-2" vertex="1">
                    <mxGeometry x="520" y="40" width="150" height="520" as="geometry"/>
                </mxCell>
                <mxCell id="ZsuVSrsKeIJ1jZ00tNGm-4" value="CHECKOUT BUTTON" style="rounded=0;whiteSpace=wrap;html=1;fontFamily=Comic Sans MS;fontSize=16;fillColor=#60a917;strokeColor=#2D7600;fontColor=#ffffff;" parent="ZsuVSrsKeIJ1jZ00tNGm-2" vertex="1">
                    <mxGeometry x="520" y="520" width="150" height="40" as="geometry"/>
                </mxCell>
                <mxCell id="ZsuVSrsKeIJ1jZ00tNGm-5" value="PIZZAS" style="rounded=0;whiteSpace=wrap;html=1;fontFamily=Comic Sans MS;fontSize=16;fillColor=none;" parent="ZsuVSrsKeIJ1jZ00tNGm-2" vertex="1">
                    <mxGeometry x="10" y="50" width="110" height="40" as="geometry"/>
                </mxCell>
                <mxCell id="ZsuVSrsKeIJ1jZ00tNGm-6" value="DRINKS" style="rounded=0;whiteSpace=wrap;html=1;fontFamily=Comic Sans MS;fontSize=16;fillColor=none;" parent="ZsuVSrsKeIJ1jZ00tNGm-2" vertex="1">
                    <mxGeometry x="140" y="50" width="110" height="40" as="geometry"/>
                </mxCell>
                <mxCell id="ZsuVSrsKeIJ1jZ00tNGm-7" value="SIDES" style="rounded=0;whiteSpace=wrap;html=1;fontFamily=Comic Sans MS;fontSize=16;fillColor=none;" parent="ZsuVSrsKeIJ1jZ00tNGm-2" vertex="1">
                    <mxGeometry x="270" y="50" width="110" height="40" as="geometry"/>
                </mxCell>
                <mxCell id="ZsuVSrsKeIJ1jZ00tNGm-8" value="MEAL DEALS" style="rounded=0;whiteSpace=wrap;html=1;fontFamily=Comic Sans MS;fontSize=16;fillColor=none;" parent="ZsuVSrsKeIJ1jZ00tNGm-2" vertex="1">
                    <mxGeometry x="400" y="50" width="110" height="40" as="geometry"/>
                </mxCell>
                <mxCell id="ZsuVSrsKeIJ1jZ00tNGm-9" value="MEAL DEALS 1.&lt;br&gt;&amp;lt;ordered list&amp;gt;" style="rounded=1;whiteSpace=wrap;html=1;fontFamily=Comic Sans MS;fontSize=16;fillColor=none;" parent="ZsuVSrsKeIJ1jZ00tNGm-2" vertex="1">
                    <mxGeometry x="10" y="130" width="240" height="100" as="geometry"/>
                </mxCell>
                <mxCell id="ZsuVSrsKeIJ1jZ00tNGm-10" value="MEAL DEALS 2.&lt;br&gt;&amp;lt;ordered list&amp;gt;" style="rounded=1;whiteSpace=wrap;html=1;fontFamily=Comic Sans MS;fontSize=16;fillColor=none;" parent="ZsuVSrsKeIJ1jZ00tNGm-2" vertex="1">
                    <mxGeometry x="270" y="130" width="240" height="100" as="geometry"/>
                </mxCell>
                <mxCell id="ZsuVSrsKeIJ1jZ00tNGm-11" value="MEAL DEALS 3.&lt;br&gt;&amp;lt;ordered list&amp;gt;" style="rounded=1;whiteSpace=wrap;html=1;fontFamily=Comic Sans MS;fontSize=16;fillColor=none;" parent="ZsuVSrsKeIJ1jZ00tNGm-2" vertex="1">
                    <mxGeometry x="10" y="280" width="240" height="100" as="geometry"/>
                </mxCell>
                <mxCell id="ZsuVSrsKeIJ1jZ00tNGm-12" value="MEAL DEALS 4.&lt;br&gt;&amp;lt;ordered list&amp;gt;" style="rounded=1;whiteSpace=wrap;html=1;fontFamily=Comic Sans MS;fontSize=16;fillColor=none;" parent="ZsuVSrsKeIJ1jZ00tNGm-2" vertex="1">
                    <mxGeometry x="270" y="280" width="240" height="100" as="geometry"/>
                </mxCell>
                <mxCell id="ZsuVSrsKeIJ1jZ00tNGm-13" value="MEAL DEALS 5.&lt;br&gt;&amp;lt;ordered list&amp;gt;" style="rounded=1;whiteSpace=wrap;html=1;fontFamily=Comic Sans MS;fontSize=16;fillColor=none;" parent="ZsuVSrsKeIJ1jZ00tNGm-2" vertex="1">
                    <mxGeometry x="10" y="420" width="240" height="100" as="geometry"/>
                </mxCell>
                <mxCell id="ZsuVSrsKeIJ1jZ00tNGm-14" value="MEAL DEALS 6.&lt;br&gt;&amp;lt;ordered list&amp;gt;" style="rounded=1;whiteSpace=wrap;html=1;fontFamily=Comic Sans MS;fontSize=16;fillColor=none;" parent="ZsuVSrsKeIJ1jZ00tNGm-2" vertex="1">
                    <mxGeometry x="270" y="420" width="240" height="100" as="geometry"/>
                </mxCell>
                <mxCell id="UqhmZKsAcGBXjz68lp5_-0" value="" style="rounded=0;whiteSpace=wrap;html=1;" parent="ZsuVSrsKeIJ1jZ00tNGm-1" vertex="1">
                    <mxGeometry x="80" width="670" height="40" as="geometry"/>
                </mxCell>
                <mxCell id="UqhmZKsAcGBXjz68lp5_-1" value="" style="ellipse;whiteSpace=wrap;html=1;aspect=fixed;" parent="ZsuVSrsKeIJ1jZ00tNGm-1" vertex="1">
                    <mxGeometry x="650" width="40" height="40" as="geometry"/>
                </mxCell>
                <mxCell id="UqhmZKsAcGBXjz68lp5_-2" value="" style="shape=sumEllipse;perimeter=ellipsePerimeter;whiteSpace=wrap;html=1;backgroundOutline=1;" parent="ZsuVSrsKeIJ1jZ00tNGm-1" vertex="1">
                    <mxGeometry x="700" width="40" height="40" as="geometry"/>
                </mxCell>
                <mxCell id="UqhmZKsAcGBXjz68lp5_-3" value="" style="shape=lineEllipse;perimeter=ellipsePerimeter;whiteSpace=wrap;html=1;backgroundOutline=1;" parent="ZsuVSrsKeIJ1jZ00tNGm-1" vertex="1">
                    <mxGeometry x="600" width="40" height="40" as="geometry"/>
                </mxCell>
                <mxCell id="UqhmZKsAcGBXjz68lp5_-4" value="" style="shape=note;whiteSpace=wrap;html=1;backgroundOutline=1;darkOpacity=0.05;size=13;" parent="ZsuVSrsKeIJ1jZ00tNGm-1" vertex="1">
                    <mxGeometry x="660" y="5" width="20" height="30" as="geometry"/>
                </mxCell>
            </root>
        </mxGraphModel>
    </diagram>
</mxfile>